<svg xmlns="http://www.w3.org/2000/svg" width="640" height="640" viewBox="0 0 640 640">
<path d="M 299,94 L 298,95 L 280,95 L 279,96 L 262,96 L 261,97 L 253,97 L 252,98 L 241,98 L 240,99 L 234,99 L 233,100 L 225,100 L 224,101 L 220,101 L 219,102 L 211,102 L 210,103 L 205,103 L 204,104 L 199,104 L 198,105 L 195,105 L 194,106 L 189,106 L 188,107 L 183,107 L 182,108 L 178,108 L 177,109 L 174,109 L 173,110 L 170,110 L 169,111 L 165,111 L 164,112 L 161,112 L 160,113 L 158,113 L 157,114 L 153,114 L 152,115 L 149,115 L 148,116 L 145,116 L 144,117 L 141,117 L 140,118 L 137,118 L 136,119 L 134,119 L 133,120 L 130,120 L 129,121 L 128,121 L 127,122 L 124,122 L 123,123 L 120,123 L 119,124 L 117,124 L 116,125 L 115,125 L 114,126 L 111,126 L 110,127 L 109,127 L 108,128 L 105,128 L 104,129 L 103,129 L 102,130 L 101,130 L 99,132 L 98,132 L 96,134 L 95,134 L 89,140 L 89,141 L 88,142 L 88,143 L 86,145 L 86,147 L 85,148 L 85,149 L 84,150 L 84,158 L 83,159 L 83,167 L 84,168 L 84,191 L 85,192 L 85,211 L 86,212 L 86,220 L 87,221 L 87,228 L 88,229 L 88,237 L 89,238 L 89,248 L 88,249 L 86,249 L 85,250 L 80,250 L 79,251 L 78,251 L 77,252 L 76,252 L 74,254 L 73,254 L 72,255 L 72,256 L 71,257 L 71,258 L 70,259 L 70,268 L 71,269 L 71,271 L 72,272 L 72,275 L 73,276 L 73,279 L 74,280 L 74,282 L 75,283 L 75,286 L 76,287 L 76,289 L 77,290 L 77,293 L 78,294 L 78,296 L 79,297 L 79,298 L 80,299 L 80,302 L 81,303 L 81,307 L 82,308 L 82,310 L 83,311 L 83,313 L 84,314 L 84,317 L 85,318 L 85,320 L 86,321 L 86,324 L 87,325 L 87,327 L 88,328 L 88,331 L 89,332 L 89,334 L 90,335 L 90,338 L 91,339 L 91,341 L 92,342 L 92,345 L 93,346 L 93,348 L 94,349 L 94,352 L 95,353 L 95,354 L 96,355 L 96,358 L 97,359 L 97,361 L 98,362 L 98,363 L 99,364 L 99,366 L 103,370 L 104,370 L 105,371 L 104,372 L 105,371 L 108,374 L 109,374 L 110,375 L 110,376 L 111,377 L 112,377 L 115,380 L 116,380 L 119,383 L 120,383 L 123,386 L 123,387 L 122,388 L 124,388 L 125,389 L 125,391 L 126,392 L 126,393 L 127,394 L 127,396 L 128,397 L 128,398 L 129,399 L 129,401 L 130,402 L 130,403 L 131,404 L 131,406 L 132,407 L 132,408 L 133,409 L 133,410 L 134,411 L 134,412 L 135,413 L 135,415 L 137,417 L 137,419 L 138,420 L 138,421 L 139,422 L 139,424 L 141,426 L 141,427 L 142,428 L 142,429 L 144,431 L 144,432 L 145,433 L 145,436 L 147,438 L 147,439 L 148,440 L 148,441 L 150,443 L 150,444 L 151,445 L 151,446 L 152,447 L 152,448 L 154,450 L 154,451 L 155,452 L 155,453 L 157,455 L 156,456 L 157,456 L 158,457 L 158,458 L 159,459 L 159,460 L 162,463 L 162,464 L 163,465 L 163,466 L 165,468 L 165,469 L 166,470 L 166,471 L 169,474 L 169,475 L 171,477 L 171,478 L 172,478 L 173,479 L 172,480 L 173,480 L 174,481 L 174,482 L 175,483 L 175,484 L 176,484 L 177,485 L 177,486 L 179,488 L 179,489 L 180,489 L 181,490 L 181,491 L 182,492 L 182,493 L 185,496 L 185,497 L 187,499 L 186,500 L 187,499 L 190,502 L 190,503 L 191,503 L 192,504 L 192,505 L 197,510 L 197,511 L 203,517 L 203,518 L 204,519 L 205,519 L 206,520 L 206,521 L 207,521 L 208,522 L 208,523 L 209,523 L 210,524 L 210,525 L 211,525 L 212,526 L 212,527 L 213,527 L 214,528 L 214,529 L 215,529 L 216,530 L 216,531 L 217,531 L 222,536 L 222,537 L 223,537 L 228,542 L 229,542 L 230,543 L 230,544 L 231,545 L 232,545 L 236,549 L 237,549 L 238,550 L 238,551 L 239,551 L 241,553 L 242,553 L 244,555 L 245,555 L 246,556 L 246,557 L 247,557 L 249,559 L 250,559 L 251,560 L 251,561 L 252,561 L 255,564 L 256,564 L 257,565 L 258,565 L 260,567 L 261,567 L 262,568 L 262,569 L 264,569 L 265,570 L 265,571 L 266,571 L 267,572 L 268,572 L 270,574 L 271,574 L 272,575 L 272,576 L 274,576 L 275,577 L 276,577 L 279,580 L 280,580 L 281,581 L 282,581 L 283,582 L 284,582 L 287,585 L 288,585 L 289,586 L 290,586 L 291,587 L 293,587 L 295,589 L 296,589 L 297,590 L 298,590 L 299,591 L 301,591 L 303,593 L 304,593 L 305,594 L 307,594 L 308,595 L 312,595 L 313,596 L 319,596 L 320,595 L 329,595 L 331,593 L 333,593 L 335,591 L 336,591 L 337,590 L 338,590 L 339,589 L 340,589 L 341,588 L 342,588 L 343,587 L 345,587 L 347,585 L 348,585 L 350,583 L 351,583 L 352,582 L 353,582 L 355,580 L 356,580 L 357,579 L 358,579 L 360,577 L 361,577 L 363,575 L 364,575 L 366,573 L 367,573 L 369,571 L 370,571 L 372,569 L 373,569 L 375,567 L 376,567 L 378,565 L 379,565 L 383,561 L 384,561 L 386,559 L 387,559 L 390,556 L 391,556 L 395,552 L 396,552 L 399,549 L 400,549 L 408,541 L 409,541 L 421,529 L 422,529 L 422,528 L 437,513 L 437,512 L 439,510 L 440,510 L 440,509 L 444,505 L 444,504 L 449,499 L 449,498 L 454,493 L 454,492 L 457,489 L 457,488 L 459,486 L 459,485 L 461,483 L 461,482 L 464,479 L 464,478 L 466,476 L 467,477 L 466,476 L 466,475 L 468,473 L 468,472 L 469,471 L 470,472 L 469,471 L 470,470 L 470,469 L 472,467 L 472,466 L 473,465 L 473,464 L 475,462 L 475,461 L 477,459 L 477,458 L 479,456 L 479,455 L 481,453 L 481,452 L 482,451 L 482,450 L 484,448 L 484,447 L 485,446 L 485,444 L 487,442 L 487,440 L 488,439 L 489,439 L 489,437 L 490,436 L 490,435 L 492,433 L 492,431 L 493,430 L 493,429 L 495,427 L 495,424 L 496,423 L 497,423 L 497,421 L 498,420 L 498,419 L 499,418 L 499,417 L 500,416 L 500,415 L 501,414 L 501,413 L 502,412 L 502,411 L 503,410 L 503,408 L 505,406 L 505,404 L 506,403 L 506,402 L 507,401 L 507,399 L 508,398 L 508,396 L 509,395 L 509,394 L 510,393 L 510,392 L 511,391 L 511,388 L 512,387 L 512,386 L 514,384 L 515,384 L 518,381 L 519,381 L 520,380 L 521,380 L 523,378 L 524,378 L 526,376 L 527,376 L 528,375 L 529,375 L 532,372 L 533,372 L 534,371 L 534,370 L 535,369 L 535,368 L 536,367 L 536,366 L 537,365 L 537,363 L 538,362 L 538,359 L 539,358 L 539,355 L 540,354 L 540,353 L 541,352 L 541,347 L 542,346 L 542,345 L 543,344 L 543,340 L 544,339 L 544,338 L 545,337 L 545,333 L 546,332 L 546,331 L 547,330 L 547,326 L 548,325 L 548,323 L 549,322 L 549,319 L 550,318 L 550,315 L 551,314 L 551,311 L 552,310 L 552,308 L 553,307 L 553,303 L 554,302 L 554,300 L 555,299 L 555,296 L 556,295 L 556,293 L 557,292 L 557,288 L 558,287 L 558,286 L 559,285 L 559,280 L 560,279 L 560,277 L 561,276 L 561,274 L 562,273 L 562,271 L 563,270 L 563,266 L 564,265 L 564,260 L 563,259 L 563,257 L 558,252 L 557,252 L 556,251 L 555,251 L 554,250 L 548,250 L 547,249 L 547,248 L 546,247 L 546,246 L 547,245 L 547,235 L 548,234 L 548,230 L 549,229 L 549,217 L 550,216 L 549,215 L 549,214 L 550,213 L 550,204 L 551,203 L 551,190 L 552,189 L 552,177 L 553,176 L 553,155 L 552,154 L 552,152 L 551,151 L 551,148 L 550,147 L 550,145 L 549,144 L 549,143 L 546,140 L 546,139 L 543,136 L 542,136 L 541,135 L 541,134 L 540,134 L 538,132 L 537,132 L 536,131 L 535,131 L 533,129 L 531,129 L 530,128 L 527,128 L 526,127 L 525,127 L 524,126 L 523,126 L 522,125 L 519,125 L 518,124 L 515,124 L 514,123 L 513,123 L 512,122 L 509,122 L 508,121 L 506,121 L 505,120 L 503,120 L 502,119 L 499,119 L 498,118 L 496,118 L 495,117 L 492,117 L 491,116 L 487,116 L 486,115 L 483,115 L 482,114 L 479,114 L 478,113 L 475,113 L 474,112 L 471,112 L 470,111 L 466,111 L 465,110 L 462,110 L 461,109 L 459,109 L 458,108 L 455,108 L 454,107 L 448,107 L 447,106 L 442,106 L 441,105 L 438,105 L 437,104 L 430,104 L 429,103 L 425,103 L 424,102 L 418,102 L 417,101 L 413,101 L 412,100 L 403,100 L 402,99 L 396,99 L 395,98 L 382,98 L 381,97 L 375,97 L 374,96 L 360,96 L 359,95 L 339,95 L 338,94 Z" fill="#2f4aa0"/>
</svg>